<svg xmlns="http://www.w3.org/2000/svg" shape-rendering="geometricPrecision" text-rendering="geometricPrecision" viewBox="0 0 1000 1000"><defs><radialGradient id="a" cx="0" cy="0" r="1.41" gradientTransform="translate(1)" gradientUnits="objectBoundingBox" spreadMethod="pad"><stop offset="0%" stop-color="#03b889"/><stop offset="100%" stop-color="#005d87"/></radialGradient></defs><rect width="1000" height="1000" fill="url(#a)" rx="0" ry="0"/><g fill="none" stroke="#304c43" stroke-linecap="round" stroke-linejoin="round" stroke-width="12"><path d="M755.66 0v195.52"/><path stroke-dasharray="170 60 90 45 150 70" d="M620.8-8.22V752.8"/><path stroke-dasharray="90 45 160 45 100 45 30 45" d="M354.34 0v761.02M216.87 0v195.52"/></g><g transform="matrix(.92083 0 0 .92084 34.29 .7)"><g transform="scale(-1 1) rotate(29.49 352.44 -2430.52)"><rect width="193.03" height="64.68" fill="#ffc05d" stroke="#4f4537" stroke-width="15" rx="0" ry="0" transform="translate(650.49 364.02)"/><g mask="url(#b)"><circle r="45.36" fill="none" stroke="#92774e" stroke-width="15" transform="translate(656.56 398.37)"/><path fill="#92774e" d="M687.42 406.57c78.88 9.3 94 10.63 113.76 10.16-7.15 54.86-115.58 47.1-113.76-10.16Z"/><mask id="b" mask-type="luminance"><rect width="193.03" height="64.68" fill="#fff" stroke="#000" stroke-width="15" rx="0" ry="0" transform="translate(650.49 364.02)"/></mask></g><circle r="45.36" fill="#ffc05d" stroke="#4f4537" stroke-width="15" transform="translate(843.52 397.84)"/><g mask="url(#c)"><circle r="45.36" fill="none" stroke="#92774e" stroke-width="15" transform="translate(834.21 394.93)"/><mask id="c" mask-type="luminance"><circle r="45.36" fill="#fff" stroke="#000" stroke-width="15" transform="translate(843.52 397.84)"/></mask></g></g><g transform="scale(-1 1) rotate(-42.58 -223.08 2588.68)"><rect width="193.03" height="64.68" fill="#ffc05d" stroke="#4f4537" stroke-width="15" rx="0" ry="0" transform="translate(803.24 400.42)"/><g mask="url(#d)"><path fill="#92774e" d="M845.5 451.93c72.8-1.9 80.56.9 103.05.43-7.15 54.86-104.87 56.84-103.05-.43Z"/><mask id="d" mask-type="luminance"><rect width="193.03" height="64.68" fill="#fff" stroke="#000" stroke-width="15" rx="0" ry="0" transform="translate(803.24 400.42)"/></mask></g><circle r="45.36" fill="#ffc05d" stroke="#4f4537" stroke-width="15" transform="translate(803.24 435.58)"/><g mask="url(#e)"><circle r="45.36" fill="none" stroke="#92774e" stroke-width="15" transform="translate(806.1 428.46)"/><mask id="e" mask-type="luminance"><circle r="45.36" fill="#fff" stroke="#000" stroke-width="15" transform="translate(803.24 435.58)"/></mask></g><circle r="45.36" fill="#ffc05d" stroke="#4f4537" stroke-width="15" transform="translate(996.27 436.92)"/><g mask="url(#f)"><circle r="45.36" fill="none" stroke="#92774e" stroke-width="15" transform="translate(996.2 429.76)"/><path fill="#ffd695" d="M1011.37 408.98c10.1 10.77-39.68 23.59-39.61 11.27s29.52-22.05 39.61-11.27Z"/><mask id="f" mask-type="luminance"><circle r="45.36" fill="#fff" stroke="#000" stroke-width="15" transform="translate(996.27 436.92)"/></mask></g></g><g transform="rotate(-113.87 822.43 721.08)"><rect width="193.03" height="64.68" fill="#ffc05d" stroke="#4f4537" stroke-width="15" rx="0" ry="0" transform="translate(810.29 476.88)"/><g mask="url(#g)"><path fill="#92774e" d="M850.68 489.44c10.56-.8 74.56-4.13 95.4-5.27-7.45-15.49-101.32-38.4-95.4 5.27Z"/><circle r="45.36" fill="none" stroke="#92774e" stroke-width="15" transform="translate(998.5 504)"/><mask id="g" mask-type="luminance"><rect width="193.03" height="64.68" fill="#fff" stroke="#000" stroke-width="15" rx="0" ry="0" transform="translate(810.29 476.88)"/></mask></g><circle r="45.36" fill="#ffc05d" stroke="#4f4537" stroke-width="15" transform="translate(1003.32 510.7)"/><g mask="url(#h)"><circle r="45.36" fill="none" stroke="#92774e" stroke-width="15" transform="translate(1003.5 517.07)"/><ellipse fill="none" stroke="#92774e" stroke-width="15" rx="45.36" ry="54.94" transform="translate(1057.85 503.94)"/><mask id="h" mask-type="luminance"><circle r="45.36" fill="#fff" stroke="#000" stroke-width="15" transform="translate(1003.32 510.7)"/></mask></g></g><g transform="rotate(-170.35 797.97 732.99)"><rect width="193.03" height="64.68" fill="#ffc05d" stroke="#4f4537" stroke-width="15" rx="0" ry="0" transform="translate(750.3 586.8)"/><g mask="url(#i)"><path fill="#92774e" d="M784.7 602.89c-66.27-97.77 146.17-57 113.38 1.66-114.37-.26-88.23 1.78-113.37-1.66Z"/><circle r="45.36" fill="none" stroke="#92774e" stroke-width="15" transform="translate(753.18 613.64)"/><mask id="i" mask-type="luminance"><rect width="193.03" height="64.68" fill="#fff" stroke="#000" stroke-width="15" rx="0" ry="0" transform="translate(750.3 586.8)"/></mask></g><circle r="45.36" fill="#ffc05d" stroke="#4f4537" stroke-width="15" transform="translate(750.3 621.96)"/><g mask="url(#j)"><circle r="45.36" fill="none" stroke="#92774e" stroke-width="15" transform="translate(748.25 630.02)"/><mask id="j" mask-type="luminance"><circle r="45.36" fill="#fff" stroke="#000" stroke-width="15" transform="translate(750.3 621.96)"/></mask></g><circle r="45.36" fill="#ffc05d" stroke="#4f4537" stroke-width="15" transform="translate(943.33 623.3)"/><g mask="url(#k)"><circle r="45.36" fill="none" stroke="#92774e" stroke-width="15" transform="translate(939.99 629.56)"/><mask id="k" mask-type="luminance"><circle r="45.36" fill="#fff" stroke="#000" stroke-width="15" transform="translate(943.33 623.3)"/></mask></g></g><g transform="scale(1 -1) rotate(67.83 1571.03 -500.7)"><rect width="193.03" height="64.68" fill="#ffc05d" stroke="#4f4537" stroke-width="15" rx="0" ry="0" transform="translate(809.86 477.9)"/><g mask="url(#l)"><circle r="45.36" fill="none" stroke="#92774e" stroke-width="15" transform="translate(993.8 519.3)"/><path fill="#92774e" d="M856.17 529.11c32.74 2.6 33.08 1.8 69.09 6.13-22.18 42.4-70.9 51.14-69.1-6.13Z"/><mask id="l" mask-type="luminance"><rect width="193.03" height="64.68" fill="#fff" stroke="#000" stroke-width="15" rx="0" ry="0" transform="translate(809.86 477.9)"/></mask></g><circle r="45.36" fill="#ffc05d" stroke="#4f4537" stroke-width="15" transform="translate(1002.89 511.72)"/><g mask="url(#m)"><circle r="45.36" fill="none" stroke="#92774e" stroke-width="15" transform="translate(1009.25 507.62)"/><ellipse fill="none" stroke="#92774e" stroke-width="15" rx="45.36" ry="61.86" transform="rotate(22.88 -709.27 2870.97)"/><mask id="m" mask-type="luminance"><circle r="45.36" fill="#fff" stroke="#000" stroke-width="15" transform="translate(1002.89 511.72)"/></mask></g></g><g transform="scale(1 -1) rotate(11.34 7925.23 -3107)"><rect width="193.03" height="64.68" fill="#ffc05d" stroke="#4f4537" stroke-width="15" rx="0" ry="0" transform="translate(749.21 587)"/><g mask="url(#n)"><path fill="#92774e" d="M793.95 599c-25.89-40.18 121.68-33.8 105.39 19.57-2.91-19.23-63.59-16.59-105.39-19.58Z"/><circle r="45.36" fill="none" stroke="#92774e" stroke-width="15" transform="translate(935.09 616.04)"/><mask id="n" mask-type="luminance"><rect width="193.03" height="64.68" fill="#fff" stroke="#000" stroke-width="15" rx="0" ry="0" transform="translate(749.21 587)"/></mask></g><circle r="45.36" fill="#ffc05d" stroke="#4f4537" stroke-width="15" transform="translate(749.21 622.16)"/><g mask="url(#o)"><circle r="45.36" fill="none" stroke="#92774e" stroke-width="15" transform="translate(755.98 625.65)"/><mask id="o" mask-type="luminance"><circle r="45.36" fill="#fff" stroke="#000" stroke-width="15" transform="translate(749.21 622.16)"/></mask></g><circle r="45.36" fill="#ffc05d" stroke="#4f4537" stroke-width="15" transform="translate(942.24 623.5)"/><g mask="url(#p)"><circle r="45.36" fill="none" stroke="#92774e" stroke-width="15" transform="translate(948.24 628.63)"/><mask id="p" mask-type="luminance"><circle r="45.36" fill="#fff" stroke="#000" stroke-width="15" transform="translate(942.24 623.5)"/></mask></g></g><path fill="#ffc05d" stroke="#4f4537" stroke-width="15" d="M393.37 605.12c23.5 42.44 166.8 42.44 185.02 0 29.63-68.98-44.44-95.45-92.8-95.3s-129.52 27.93-92.22 95.3Z"/><g mask="url(#q)"><path fill="#92774e" d="M544.05 536.63c-83.74-67.83-186.21 15.83-150.68 66.08 4.9 6.92 2.86-39.9 67.7-39.9s68.78-25.75 82.98-26.18Z"/><path fill="#ffd695" d="M566.61 582.87c-8.48 12.09-31.23-34-19.15-36.46s27.63 24.37 19.15 36.46Z"/><mask id="q" mask-type="luminance"><path fill="#fff" stroke="#000" stroke-width="15" d="M393.37 605.12c23.5 42.44 166.8 42.44 185.02 0 29.63-68.98-44.44-95.45-92.8-95.3s-129.52 27.93-92.22 95.3Z"/></mask></g><path fill="#ffc05d" stroke="#4f4537" stroke-linejoin="round" stroke-width="15" d="M406.71 239.95c36.84 0 44.2 13.82 80.12 13.82s47.18-13.82 72.53-13.82c83.16 0 65.61 309.32-72.45 309.32s-159.15-309.32-80.2-309.32Z"/><g mask="url(#r)"><path fill="#ffd695" d="M562.87 312.6c24.48 16.12-1.56 141.25-10.75 141.25S538.4 296.47 562.87 312.6Z"/><path fill="#92774e" d="M426.32 243.34c7.43-21 215.1-32.44 152.07 34.84s-160.9-9.86-152.07-34.84ZM533.72 530.8C332.6 624.77 304.54 238.4 401.94 306.16c-7.63 100.13 12.02 274.78 131.78 224.64Z"/><mask id="r" mask-type="luminance"><path fill="#fff" stroke="#000" stroke-linejoin="round" stroke-width="15" d="M406.71 239.95c36.84 0 44.2 13.82 80.12 13.82s47.18-13.82 72.53-13.82c83.16 0 65.61 309.32-72.45 309.32s-159.15-309.32-80.2-309.32Z"/></mask></g><g><g transform="rotate(20.82 974.22 -873.22)"><rect width="193.03" height="64.68" fill="#ffc05d" stroke="#4f4537" stroke-width="15" rx="0" ry="0" transform="translate(630.4 373.45)"/><g mask="url(#s)"><path fill="#92774e" d="M675.1 426.55c-17.03 50.73 115.62 35.35 97.77-11.6-4.11 13.19-77.5 13.24-97.77 11.6Z"/><circle r="45.36" fill="none" stroke="#92774e" stroke-width="15" transform="translate(818.23 414.95)"/><mask id="s" mask-type="luminance"><rect width="193.03" height="64.68" fill="#fff" stroke="#000" stroke-width="15" rx="0" ry="0" transform="translate(630.4 373.45)"/></mask></g><circle r="45.36" fill="#ffc05d" stroke="#4f4537" stroke-width="15" transform="translate(823.44 407.28)"/><g mask="url(#t)"><circle r="45.36" fill="none" stroke="#92774e" stroke-width="15" transform="translate(823.44 407.28)"/><circle r="45.36" fill="none" stroke="#92774e" stroke-width="15" transform="translate(829.71 399.77)"/><mask id="t" mask-type="luminance"><circle r="45.36" fill="#fff" stroke="#000" stroke-width="15" transform="translate(823.44 407.28)"/></mask></g></g><g transform="rotate(-51.26 362 1128.7)"><rect width="193.03" height="64.68" fill="#ffc05d" stroke="#4f4537" stroke-width="15" rx="0" ry="0" transform="translate(788.09 384.22)"/><g mask="url(#u)"><circle r="45.36" fill="none" stroke="#92774e" stroke-width="15" transform="translate(973.22 427.07)"/><path fill="#92774e" d="M832.29 397.05c-22.85-27.03 49.3-11.46 85.3-7.13-31.62 3.5-20.7 2.6-85.3 7.13Z"/><mask id="u" mask-type="luminance"><rect width="193.03" height="64.68" fill="#fff" stroke="#000" stroke-width="15" rx="0" ry="0" transform="translate(788.09 384.22)"/></mask></g><circle r="45.36" fill="#ffc05d" stroke="#4f4537" stroke-width="15" transform="translate(788.09 419.38)"/><g mask="url(#v)"><circle r="45.36" fill="none" stroke="#92774e" stroke-width="15" transform="translate(797.3 422)"/><mask id="v" mask-type="luminance"><circle r="45.36" fill="#fff" stroke="#000" stroke-width="15" transform="translate(788.09 419.38)"/></mask></g><circle r="45.36" fill="#ffc05d" stroke="#4f4537" stroke-width="15" transform="translate(981.12 420.71)"/><g mask="url(#w)"><circle r="45.36" fill="none" stroke="#92774e" stroke-width="15" transform="translate(987.62 424.46)"/><mask id="w" mask-type="luminance"><circle r="45.36" fill="#fff" stroke="#000" stroke-width="15" transform="translate(981.12 420.71)"/></mask></g></g></g><circle r="81.67" fill="#ffc05d" stroke="#4f4537" stroke-width="15" transform="translate(525.63 210.18)"/><g mask="url(#x)" transform="translate(-1.25 30.26)"><path fill="#ffd695" d="M547.31 124.48c22.59-12.67 46.34 49.8 35.75 55.67s-58.33-43-35.75-55.67Z"/><circle r="92.19" fill="none" stroke="#92774e" stroke-width="15" transform="translate(546 169.87)"/><mask id="x" mask-type="luminance"><circle r="81.67" fill="#fff" stroke="#000" stroke-width="15" transform="translate(526.88 179.92)"/></mask></g></g></svg>